<mxfile host="app.diagrams.net" agent="Mozilla/5.0 (Macintosh; Intel Mac OS X 10_15_7) AppleWebKit/537.36 (KHTML, like Gecko) Chrome/138.0.0.0 Safari/537.36" version="28.0.7">
  <diagram name="Page-1" id="IIOgsNhMrWlro2UXlcWt">
    <mxGraphModel dx="1634" dy="790" grid="0" gridSize="10" guides="1" tooltips="1" connect="1" arrows="1" fold="1" page="0" pageScale="1" pageWidth="850" pageHeight="1100" math="0" shadow="0">
      <root>
        <mxCell id="0" />
        <mxCell id="1" parent="0" />
        <mxCell id="GrY5KuZn6I1nKXMDOqVR-2" value="" style="rounded=1;whiteSpace=wrap;html=1;" vertex="1" parent="1">
          <mxGeometry x="-135" y="206" width="120" height="60" as="geometry" />
        </mxCell>
        <mxCell id="GrY5KuZn6I1nKXMDOqVR-3" value="&lt;font style=&quot;font-size: 16px;&quot;&gt;开始&lt;/font&gt;" style="text;html=1;align=center;verticalAlign=middle;whiteSpace=wrap;rounded=0;" vertex="1" parent="1">
          <mxGeometry x="-107" y="223" width="60" height="30" as="geometry" />
        </mxCell>
        <mxCell id="GrY5KuZn6I1nKXMDOqVR-5" value="" style="rounded=1;whiteSpace=wrap;html=1;" vertex="1" parent="1">
          <mxGeometry x="372.5" y="117" width="120" height="60" as="geometry" />
        </mxCell>
        <mxCell id="GrY5KuZn6I1nKXMDOqVR-6" value="&lt;span style=&quot;font-size: 16px;&quot;&gt;用户需求澄清&lt;/span&gt;" style="text;html=1;align=center;verticalAlign=middle;whiteSpace=wrap;rounded=0;" vertex="1" parent="1">
          <mxGeometry x="380.5" y="132" width="104" height="30" as="geometry" />
        </mxCell>
        <mxCell id="GrY5KuZn6I1nKXMDOqVR-8" value="" style="rhombus;whiteSpace=wrap;html=1;" vertex="1" parent="1">
          <mxGeometry x="249" y="218" width="179" height="132" as="geometry" />
        </mxCell>
        <mxCell id="GrY5KuZn6I1nKXMDOqVR-9" value="&lt;span style=&quot;font-size: 16px;&quot;&gt;用户需求是否明确&lt;/span&gt;" style="text;html=1;align=center;verticalAlign=middle;whiteSpace=wrap;rounded=0;" vertex="1" parent="1">
          <mxGeometry x="254" y="269" width="174" height="30" as="geometry" />
        </mxCell>
      </root>
    </mxGraphModel>
  </diagram>
</mxfile>
